<svg xmlns="http://www.w3.org/2000/svg" width="341.544" height="99.818" viewBox="0 0 14980 4378">
  <defs>
    <style>
      .cls-1 {
        fill: #fff;
        fill-rule: evenodd;
      }
    </style>
  </defs>
  <path id="Norse" class="cls-1" d="M1076,0c389.07-5.705,588.3,172.885,678,466,12.92,42.228,17.71,87.872,26,135q2.505,34,5,68c6.49,39.85-.12,114.823-6,149q-18,127.988-36,256c-7.02,40.39-12.24,123.34-5,168q3.495,57.495,7,115c15.06,88.19,22.54,172.43,46,251,182.03,609.6,593.13,1019.64,1224,1180,91.13,23.16,188.4,29.25,294,39v1q-22.5,66.99-45,134c-20.42,52.4-43.07,104.13-65,154-10.28,23.37-32.68,84.7-48,100-57.96.95-118.45-8.66-170-19q-61.5-10.995-123-22c-98.45-24.82-192.75-51.23-280-86-439.02-174.95-756.37-458.86-986-843-60.51-101.22-106.29-210.05-152-328-15.8-40.76-34.53-87.18-42-133-1,.67-2,1.33-3,2q-54,105.99-108,212-67.995,133.485-136,267c-75.94,130.25-142.69,263.96-190,422-19.316,64.52-25.148,134.16-38,206l-6,90c-4.807,30.04-6.147,76.84-1,108l4,83c9.5,56.48,13.093,112.98,26,164,14.841,58.67,25.461,114.18,46,167,98.55,253.46,238.41,462.18,436,616,73.36,57.11,144.43,104.23,228,153,23.48,13.7,49.91,30.29,77,39v2l-97,21-133,21q-88.485,8.505-177,17-36.495,1.005-73,2c-36.73,5.88-101.22,3.76-136-2l-52-3-27-18c-26.08-17.4-51.033-35.16-76-53-43.645-31.19-83.558-64.94-125-98q-24.5-22.995-49-46c-23.164-18.65-46.351-40.83-65-64q-25-25.995-50-52c-34.445-42.9-71.775-83.91-104-129-115.282-161.31-211.248-345.78-267-566q-8-53.49-16-107c-10.66-58.94-12.993-124.25-13-192q0.5-34.995,1-70,3-51.99,6-104c15.05-87.34,21.737-171.16,45-249,30.073-100.63,62.594-193.54,102-283,46.738-106.11,109.885-200.27,169-294,136.391-216.25,296.92-410.52,438-622,99.53-149.2,194.78-298.39,249-493,33.91-121.72,32.52-252.724-14-358-68.95-156.051-261.07-274.668-499-214-117.867,30.053-206.667,79.1-288,144-54.89,43.8-151.163,156.323-129,267,21.954,109.632,108.888,159.439,214,186,27.245,6.885,53.918,5.061,85,10,34.356,5.46,78.794,1.87,110-4,101.051-19.008,183.795-46.587,266-82q56.49-25,113-50l52-27c22.09-7.746,38.05,9.459,41,25,3.96,20.909-25.2,50.963-34,63-41.32,56.5-87.67,107.554-143,150-101.194,77.63-209.551,131.65-355,168-237.771,59.42-521.082-19.83-626-151-28.771-35.97-52.884-75.119-66-127-30.807-121.855,5.593-256.809,43-342C166.989,330.4,420.435,150.855,705,61c74.974-23.674,154.549-35.365,239-51l102-9ZM7811,1060c320.28-3.89,551.89,80.93,738,212,34.76,24.48,66.29,52.84,99,79,121.05,96.81,219.75,233.09,286,384,41.86,95.35,66.47,189.12,89,308,6.82,35.96,1.79,72.06,8,111,7.25,45.52,1.2,115.63-6,156-7.37,41.33-8.51,78.98-18,117-18.34,73.48-39.24,142.16-67,206-136.87,314.82-393.29,530.33-738,638-58.07,18.14-120.31,25.98-185,38q-43.5,4.005-87,8-30,.495-60,1c-29.86,4.76-74.17,1.81-103-3-37.37-6.24-72.02-3.96-107-11-86.07-17.32-166.16-35.21-239-64-330.4-130.59-577.94-365.07-688-715-42.29-134.47-74.27-336.39-40-507,15.19-75.61,29.53-146.8,55-212,128.95-330.08,361.36-547.22,692-676,74.34-28.95,155.99-42.03,243-59Q7746.99,1065.495,7811,1060Zm4354,0c253.1-3.35,432.7,56.08,585,152,61.3,38.64,126.7,84.43,169,142q-139.5,146.985-279,294c-25.1-18.67-44.6-45.81-70-65-74-56.02-154.5-95.03-265-116-154.1-29.25-289.6,40.31-337,133-21.1,41.37-33,111.15-12,163,54.3,133.92,250.6,177.22,396,223,266,83.74,515.2,166.98,617,415,17.2,41.95,27.3,88.69,37,140,1.3,19,2.7,38,4,57,0.3,26,.7,52,1,78-10.3,62.52-13.5,117.52-30,170-57,181.03-186.8,314.17-352,387-67.8,29.88-140.7,50.02-222,68-44.6,9.86-92.2,8.04-140,16-20.7.33-41.3,0.67-62,1-21.7-.33-43.3-0.67-65-1l-60-3c-39.7-6.72-80.6-9.38-117-18-41.7-9.86-79.6-16.89-118-29-199-62.82-346.5-170.19-474-304q139.5-139.485,279-279c11.3,12,22.7,24,34,36q35.55,30,71,60c73.3,52.47,155.5,93.3,256,119,31.1,7.95,64.2,9.3,98,15,28.9,4.86,72.7,3.63,100-1,24.5-4.17,45.9-3.45,68-9,98.9-24.9,170.3-69.97,212-152,28.5-56.03,36.7-150.97,3-208-62.6-105.85-210-143.66-338-184-188.8-59.49-372.3-114.98-511-223-87.3-67.99-147.6-164.92-179-289-7.9-31.21-7.4-61.93-13-97-6.4-39.55-4.9-96.51,2-134,6.8-36.96,13.3-72.05,24-105,48.6-149.03,150-257.85,272-334,78.2-48.8,168.3-77.72,272-102q54-7.005,108-14Q12147,1060.995,12165,1060Zm-7763,46h292c25.7,0,97.31-6.55,114,3q531.45,685.425,1063,1371V1106h465V3272H6036c-16.52,0-96.98,4.07-104-2q-532.44-685.935-1065-1372V3272H4402V1106Zm4974,0h715c125.5-.01,284.7-11.3,391,12,140.3,30.76,242.9,78.94,338,152,24.5,18.84,51.7,40.03,71,64,80.2,99.47,134.3,179.51,171,325,70.4,279-63.4,564.11-210,682-47.5,38.21-96.5,90.49-160,111q232.05,409.965,464,820h-496q-169.5-314.97-339-630c-1,.33-2,0.67-3,1q-238.5,127.485-477,255v374H9376V1106Zm3980,0h1594v419H13821v432h881v418h-881v479h1159v418H13356V1106ZM7839,1478q-34.5,2.505-69,5c-49.52,8.79-97.49,15.64-140,32-208.08,80.07-346.99,216.12-427,424-16.71,43.42-25.61,91.7-35,142-18.74,100.45-4.42,225.99,20,307,64.48,213.91,192.49,367.72,386,452,47.08,20.5,98.19,36.86,155,49,26.43,5.65,51.99,4.66,81,9q36.495,1.005,73,2c57.27-8.65,109.21-9.57,158-24,217.41-64.32,371.49-204.01,455-402,19.97-47.35,33.59-99.22,45-155,27.67-135.27,1.73-292.7-38-394C8404.46,1673.73,8186.82,1480.02,7839,1478Zm2002,47v890q84.495-44.49,169-89c99.9-58.52,203.3-109.39,301-168,105.8-63.43,239.2-123.16,287-244,10.3-26.04,10.5-54.56,16-87,9.8-57.34-24.7-136.63-44-168-39.1-63.54-96.2-106.22-178-127-53.1-13.5-129.2-7-193-7H9841Z"/>
</svg>
